<svg xmlns="http://www.w3.org/2000/svg" xmlns:xlink="http://www.w3.org/1999/xlink" width="372" zoomAndPan="magnify" viewBox="0 0 279 98.999996" height="132" preserveAspectRatio="xMidYMid meet" version="1.2"><defs/><g id="9eada24763"><g style="fill:#ffffff;fill-opacity:1;"><g transform="translate(0.00000563636, 69.083198)"><path style="stroke:none" d="M 29.484375 4.453125 C 27.941406 4.453125 26.289062 4.351562 24.53125 4.15625 C 22.769531 3.96875 21.0625 3.628906 19.40625 3.140625 C 17.8125 2.640625 16.320312 1.976562 14.9375 1.15625 C 13.5625 0.332031 12.4375 -0.765625 11.5625 -2.140625 C 11.226562 -2.640625 10.878906 -3.328125 10.515625 -4.203125 C 10.160156 -5.085938 9.984375 -5.914062 9.984375 -6.6875 C 9.984375 -7.40625 10.191406 -8.023438 10.609375 -8.546875 C 11.023438 -9.066406 11.585938 -9.328125 12.296875 -9.328125 C 12.796875 -9.328125 13.238281 -9.132812 13.625 -8.75 C 14.007812 -8.363281 14.257812 -7.925781 14.375 -7.4375 C 14.644531 -6.601562 14.957031 -5.859375 15.3125 -5.203125 C 15.675781 -4.546875 16.210938 -3.941406 16.921875 -3.390625 C 18.078125 -2.453125 19.453125 -1.800781 21.046875 -1.4375 C 22.648438 -1.082031 24.164062 -0.820312 25.59375 -0.65625 C 27.03125 -0.488281 28.488281 -0.40625 29.96875 -0.40625 C 31.957031 -0.40625 33.882812 -0.546875 35.75 -0.828125 C 37.1875 -1.046875 38.644531 -1.429688 40.125 -1.984375 C 41.613281 -2.535156 43.019531 -3.222656 44.34375 -4.046875 C 46.050781 -5.148438 47.46875 -6.472656 48.59375 -8.015625 C 49.726562 -9.554688 50.296875 -11.367188 50.296875 -13.453125 C 50.296875 -14.890625 49.945312 -16.195312 49.25 -17.375 C 48.5625 -18.5625 47.613281 -19.625 46.40625 -20.5625 C 45.03125 -21.601562 43.597656 -22.347656 42.109375 -22.796875 C 41.398438 -22.960938 40.660156 -23.046875 39.890625 -23.046875 C 39.390625 -23.046875 38.878906 -23.015625 38.359375 -22.953125 C 37.835938 -22.898438 37.300781 -22.816406 36.75 -22.703125 C 36.363281 -22.597656 35.976562 -22.515625 35.59375 -22.453125 C 35.207031 -22.398438 34.820312 -22.347656 34.4375 -22.296875 C 34.050781 -22.242188 33.609375 -22.203125 33.109375 -22.171875 C 32.617188 -22.140625 32.234375 -21.988281 31.953125 -21.71875 C 31.398438 -21.21875 30.988281 -20.539062 30.71875 -19.6875 C 30.445312 -18.84375 30.171875 -18.113281 29.890625 -17.5 C 29.335938 -16.289062 28.800781 -15.050781 28.28125 -13.78125 C 27.757812 -12.519531 27.304688 -11.226562 26.921875 -9.90625 C 26.640625 -9.1875 26.414062 -8.414062 26.25 -7.59375 C 26.09375 -6.769531 25.789062 -6.054688 25.34375 -5.453125 C 24.90625 -4.847656 24.332031 -4.546875 23.625 -4.546875 C 23.070312 -4.546875 22.5625 -4.75 22.09375 -5.15625 C 21.625 -5.570312 21.390625 -6.222656 21.390625 -7.109375 C 21.390625 -7.492188 21.429688 -7.875 21.515625 -8.25 C 21.597656 -8.632812 21.691406 -8.992188 21.796875 -9.328125 C 22.015625 -10.097656 22.234375 -10.867188 22.453125 -11.640625 C 22.679688 -12.410156 22.929688 -13.179688 23.203125 -13.953125 C 23.703125 -15.273438 24.253906 -16.570312 24.859375 -17.84375 C 25.078125 -18.28125 25.28125 -18.734375 25.46875 -19.203125 C 25.664062 -19.671875 25.875 -20.125 26.09375 -20.5625 C 26.144531 -20.726562 26.210938 -20.90625 26.296875 -21.09375 C 26.378906 -21.289062 26.421875 -21.5 26.421875 -21.71875 C 26.421875 -21.9375 26.203125 -22.128906 25.765625 -22.296875 C 25.484375 -22.347656 25.21875 -22.414062 24.96875 -22.5 C 24.726562 -22.582031 24.550781 -22.648438 24.4375 -22.703125 C 24 -22.929688 23.628906 -23.238281 23.328125 -23.625 C 23.023438 -24.007812 22.875 -24.445312 22.875 -24.9375 C 22.875 -25.65625 23.132812 -26.207031 23.65625 -26.59375 C 24.175781 -26.976562 24.851562 -27.253906 25.6875 -27.421875 C 25.90625 -27.472656 26.207031 -27.523438 26.59375 -27.578125 C 26.976562 -27.628906 27.332031 -27.6875 27.65625 -27.75 C 28.488281 -27.851562 29.125 -28.097656 29.5625 -28.484375 C 29.78125 -28.703125 29.972656 -28.976562 30.140625 -29.3125 C 30.304688 -29.644531 30.5 -29.945312 30.71875 -30.21875 C 30.882812 -30.601562 31.078125 -30.960938 31.296875 -31.296875 C 31.515625 -31.628906 31.734375 -31.957031 31.953125 -32.28125 C 32.835938 -33.769531 33.707031 -35.257812 34.5625 -36.75 C 35.414062 -38.238281 36.421875 -39.613281 37.578125 -40.875 C 37.960938 -41.3125 38.414062 -41.738281 38.9375 -42.15625 C 39.457031 -42.570312 40.019531 -42.78125 40.625 -42.78125 C 41.226562 -42.78125 41.722656 -42.554688 42.109375 -42.109375 C 42.492188 -41.671875 42.6875 -41.175781 42.6875 -40.625 C 42.6875 -40.019531 42.523438 -39.472656 42.203125 -38.984375 C 41.816406 -38.367188 41.398438 -37.800781 40.953125 -37.28125 C 40.515625 -36.757812 40.101562 -36.222656 39.71875 -35.671875 C 39.226562 -34.953125 38.75 -34.234375 38.28125 -33.515625 C 37.8125 -32.804688 37.351562 -32.066406 36.90625 -31.296875 C 36.414062 -30.523438 36.046875 -29.957031 35.796875 -29.59375 C 35.546875 -29.238281 35.421875 -28.925781 35.421875 -28.65625 C 35.421875 -28.320312 35.65625 -28.128906 36.125 -28.078125 C 36.59375 -28.023438 37.351562 -28 38.40625 -28 C 40.488281 -28 42.410156 -28.300781 44.171875 -28.90625 C 45.941406 -29.507812 47.515625 -30.195312 48.890625 -30.96875 C 50.265625 -31.789062 51.582031 -32.832031 52.84375 -34.09375 C 54.113281 -35.363281 54.75 -36.878906 54.75 -38.640625 C 54.75 -40.847656 53.675781 -42.640625 51.53125 -44.015625 C 49.875 -45.003906 48.066406 -45.703125 46.109375 -46.109375 C 44.160156 -46.523438 42.171875 -46.734375 40.140625 -46.734375 C 38.816406 -46.734375 37.503906 -46.664062 36.203125 -46.53125 C 34.910156 -46.394531 33.6875 -46.21875 32.53125 -46 C 30.820312 -45.71875 29.085938 -45.273438 27.328125 -44.671875 C 25.566406 -44.066406 23.863281 -43.351562 22.21875 -42.53125 C 20.78125 -41.8125 19.414062 -40.96875 18.125 -40 C 16.832031 -39.039062 15.660156 -38.007812 14.609375 -36.90625 C 13.898438 -36.082031 13.28125 -35.144531 12.75 -34.09375 C 12.226562 -33.050781 11.96875 -31.984375 11.96875 -30.890625 C 11.96875 -30.222656 12.078125 -29.585938 12.296875 -28.984375 C 12.578125 -28.210938 12.976562 -27.617188 13.5 -27.203125 C 14.019531 -26.796875 14.640625 -26.425781 15.359375 -26.09375 C 15.859375 -25.875 16.351562 -25.597656 16.84375 -25.265625 C 17.34375 -24.941406 17.59375 -24.421875 17.59375 -23.703125 C 17.59375 -23.035156 17.285156 -22.535156 16.671875 -22.203125 C 16.066406 -21.878906 15.4375 -21.71875 14.78125 -21.71875 C 14.007812 -21.71875 13.265625 -21.878906 12.546875 -22.203125 C 11.835938 -22.535156 11.175781 -22.953125 10.5625 -23.453125 C 8.257812 -25.484375 7.109375 -28.070312 7.109375 -31.21875 C 7.109375 -33.082031 7.503906 -34.828125 8.296875 -36.453125 C 9.097656 -38.078125 10.128906 -39.523438 11.390625 -40.796875 C 12.609375 -42.054688 13.972656 -43.195312 15.484375 -44.21875 C 16.992188 -45.238281 18.492188 -46.109375 19.984375 -46.828125 C 26.097656 -49.910156 32.59375 -51.476562 39.46875 -51.53125 C 41.289062 -51.53125 43.132812 -51.421875 45 -51.203125 C 46.875 -50.984375 48.691406 -50.539062 50.453125 -49.875 C 51.828125 -49.382812 53.132812 -48.722656 54.375 -47.890625 C 55.613281 -47.066406 56.675781 -46.019531 57.5625 -44.75 C 58.988281 -42.820312 59.703125 -40.707031 59.703125 -38.40625 C 59.703125 -37.351562 59.535156 -36.332031 59.203125 -35.34375 C 58.816406 -34.300781 58.28125 -33.335938 57.59375 -32.453125 C 56.90625 -31.566406 56.175781 -30.769531 55.40625 -30.0625 C 54.75 -29.507812 54.078125 -29 53.390625 -28.53125 C 52.703125 -28.0625 52 -27.632812 51.28125 -27.25 C 50.894531 -27.03125 50.507812 -26.835938 50.125 -26.671875 C 49.738281 -26.503906 49.296875 -26.3125 48.796875 -26.09375 C 48.640625 -25.976562 48.445312 -25.863281 48.21875 -25.75 C 48 -25.644531 47.890625 -25.539062 47.890625 -25.4375 C 47.890625 -25.15625 48.113281 -24.878906 48.5625 -24.609375 C 48.945312 -24.390625 49.316406 -24.15625 49.671875 -23.90625 C 50.023438 -23.65625 50.367188 -23.394531 50.703125 -23.125 C 51.910156 -22.019531 52.898438 -20.78125 53.671875 -19.40625 C 54.660156 -17.53125 55.15625 -15.519531 55.15625 -13.375 C 55.15625 -12.382812 55.046875 -11.421875 54.828125 -10.484375 C 54.390625 -8.554688 53.644531 -6.820312 52.59375 -5.28125 C 51.550781 -3.738281 50.285156 -2.390625 48.796875 -1.234375 C 46.765625 0.410156 44.425781 1.675781 41.78125 2.5625 C 39.800781 3.21875 37.765625 3.695312 35.671875 4 C 33.578125 4.300781 31.515625 4.453125 29.484375 4.453125 Z M 29.484375 4.453125 "/></g></g><g style="fill:#ffffff;fill-opacity:1;"><g transform="translate(56.424105, 70.856009)"><path style="stroke:none" d="M 11.1875 0.359375 C 9.300781 0.359375 7.644531 -0.0234375 6.21875 -0.796875 C 4.800781 -1.566406 3.695312 -2.695312 2.90625 -4.1875 C 2.125 -5.6875 1.734375 -7.5 1.734375 -9.625 C 1.734375 -11.738281 2.125 -13.546875 2.90625 -15.046875 C 3.695312 -16.554688 4.800781 -17.695312 6.21875 -18.46875 C 7.644531 -19.238281 9.300781 -19.625 11.1875 -19.625 C 13.070312 -19.625 14.726562 -19.238281 16.15625 -18.46875 C 17.582031 -17.695312 18.691406 -16.554688 19.484375 -15.046875 C 20.273438 -13.546875 20.671875 -11.738281 20.671875 -9.625 C 20.671875 -7.5 20.273438 -5.6875 19.484375 -4.1875 C 18.691406 -2.695312 17.582031 -1.566406 16.15625 -0.796875 C 14.726562 -0.0234375 13.070312 0.359375 11.1875 0.359375 Z M 11.1875 -3.734375 C 14.1875 -3.734375 15.6875 -5.695312 15.6875 -9.625 C 15.6875 -11.65625 15.300781 -13.144531 14.53125 -14.09375 C 13.757812 -15.050781 12.644531 -15.53125 11.1875 -15.53125 C 8.195312 -15.53125 6.703125 -13.5625 6.703125 -9.625 C 6.703125 -5.695312 8.195312 -3.734375 11.1875 -3.734375 Z M 11.1875 -3.734375 "/></g></g><g style="fill:#ffffff;fill-opacity:1;"><g transform="translate(78.812546, 70.856009)"><path style="stroke:none" d="M 11.1875 0.359375 C 9.300781 0.359375 7.644531 -0.0234375 6.21875 -0.796875 C 4.800781 -1.566406 3.695312 -2.695312 2.90625 -4.1875 C 2.125 -5.6875 1.734375 -7.5 1.734375 -9.625 C 1.734375 -11.738281 2.125 -13.546875 2.90625 -15.046875 C 3.695312 -16.554688 4.800781 -17.695312 6.21875 -18.46875 C 7.644531 -19.238281 9.300781 -19.625 11.1875 -19.625 C 13.070312 -19.625 14.726562 -19.238281 16.15625 -18.46875 C 17.582031 -17.695312 18.691406 -16.554688 19.484375 -15.046875 C 20.273438 -13.546875 20.671875 -11.738281 20.671875 -9.625 C 20.671875 -7.5 20.273438 -5.6875 19.484375 -4.1875 C 18.691406 -2.695312 17.582031 -1.566406 16.15625 -0.796875 C 14.726562 -0.0234375 13.070312 0.359375 11.1875 0.359375 Z M 11.1875 -3.734375 C 14.1875 -3.734375 15.6875 -5.695312 15.6875 -9.625 C 15.6875 -11.65625 15.300781 -13.144531 14.53125 -14.09375 C 13.757812 -15.050781 12.644531 -15.53125 11.1875 -15.53125 C 8.195312 -15.53125 6.703125 -13.5625 6.703125 -9.625 C 6.703125 -5.695312 8.195312 -3.734375 11.1875 -3.734375 Z M 11.1875 -3.734375 "/></g></g><g style="fill:#ffffff;fill-opacity:1;"><g transform="translate(101.200987, 70.856009)"><path style="stroke:none" d="M 2.78125 0 L 2.78125 -27 L 7.609375 -27 L 7.609375 -12.015625 L 8.078125 -12.015625 L 13.65625 -19.265625 L 18.5625 -19.265625 L 18.5625 -18.859375 L 12.015625 -10.40625 L 19.296875 -0.4375 L 19.296875 0 L 14.203125 0 L 8.078125 -8.125 L 7.609375 -8.125 L 7.609375 0 Z M 2.78125 0 "/></g></g><g style="fill:#ffffff;fill-opacity:1;"><g transform="translate(120.533284, 70.856009)"><path style="stroke:none" d="M 7.953125 0 L 3.3125 0 L 3.3125 -25.53125 L 9.921875 -25.53125 L 16.375 -6.765625 L 16.75 -6.765625 L 23.171875 -25.53125 L 29.625 -25.53125 L 29.625 0 L 24.828125 0 L 24.828125 -16.875 L 24.390625 -16.9375 L 18.5 0 L 14.28125 0 L 8.375 -16.9375 L 7.953125 -16.875 Z M 7.953125 0 "/></g></g><g style="fill:#ffffff;fill-opacity:1;"><g transform="translate(153.487253, 70.856009)"><path style="stroke:none" d="M 4.265625 8.171875 C 3.429688 8.171875 2.679688 8.101562 2.015625 7.96875 C 1.347656 7.84375 0.804688 7.675781 0.390625 7.46875 L 1.15625 3.5625 L 1.46875 3.453125 C 1.757812 3.609375 2.117188 3.734375 2.546875 3.828125 C 2.984375 3.921875 3.425781 3.96875 3.875 3.96875 C 4.65625 3.96875 5.300781 3.863281 5.8125 3.65625 C 6.332031 3.457031 6.773438 3.117188 7.140625 2.640625 C 7.503906 2.171875 7.828125 1.519531 8.109375 0.6875 L 0.421875 -19.265625 L 5.484375 -19.265625 L 10.265625 -5.875 L 10.6875 -5.875 L 15.34375 -19.265625 L 20.28125 -19.265625 L 12.53125 1.203125 C 11.914062 2.859375 11.238281 4.1875 10.5 5.1875 C 9.757812 6.195312 8.882812 6.945312 7.875 7.4375 C 6.875 7.925781 5.671875 8.171875 4.265625 8.171875 Z M 4.265625 8.171875 "/></g></g><g style="fill:#ffffff;fill-opacity:1;"><g transform="translate(174.164253, 70.856009)"><path style="stroke:none" d="M 11.3125 0.359375 C 9.539062 0.359375 7.960938 0.144531 6.578125 -0.28125 C 5.203125 -0.71875 4.054688 -1.289062 3.140625 -2 C 2.222656 -2.71875 1.519531 -3.5 1.03125 -4.34375 L 3.8125 -7.734375 L 4.25 -7.734375 C 5.007812 -6.597656 5.976562 -5.691406 7.15625 -5.015625 C 8.34375 -4.335938 9.726562 -4 11.3125 -4 C 12.664062 -4 13.6875 -4.28125 14.375 -4.84375 C 15.0625 -5.414062 15.40625 -6.207031 15.40625 -7.21875 C 15.40625 -7.820312 15.289062 -8.328125 15.0625 -8.734375 C 14.84375 -9.140625 14.476562 -9.488281 13.96875 -9.78125 C 13.457031 -10.070312 12.765625 -10.320312 11.890625 -10.53125 L 8.609375 -11.28125 C 6.316406 -11.800781 4.609375 -12.671875 3.484375 -13.890625 C 2.359375 -15.109375 1.796875 -16.691406 1.796875 -18.640625 C 1.796875 -20.078125 2.15625 -21.34375 2.875 -22.4375 C 3.601562 -23.53125 4.65625 -24.378906 6.03125 -24.984375 C 7.414062 -25.597656 9.066406 -25.90625 10.984375 -25.90625 C 12.953125 -25.90625 14.632812 -25.644531 16.03125 -25.125 C 17.4375 -24.601562 18.625 -23.804688 19.59375 -22.734375 L 17.09375 -19.3125 L 16.65625 -19.3125 C 15.9375 -20.070312 15.109375 -20.640625 14.171875 -21.015625 C 13.242188 -21.390625 12.179688 -21.578125 10.984375 -21.578125 C 9.597656 -21.578125 8.539062 -21.332031 7.8125 -20.84375 C 7.09375 -20.363281 6.734375 -19.691406 6.734375 -18.828125 C 6.734375 -18.023438 6.988281 -17.382812 7.5 -16.90625 C 8.007812 -16.425781 8.882812 -16.050781 10.125 -15.78125 L 13.484375 -15.09375 C 15.960938 -14.5625 17.757812 -13.671875 18.875 -12.421875 C 20 -11.171875 20.5625 -9.539062 20.5625 -7.53125 C 20.5625 -5.9375 20.21875 -4.546875 19.53125 -3.359375 C 18.84375 -2.179688 17.804688 -1.265625 16.421875 -0.609375 C 15.035156 0.0351562 13.332031 0.359375 11.3125 0.359375 Z M 11.3125 0.359375 "/></g></g><g style="fill:#ffffff;fill-opacity:1;"><g transform="translate(196.098639, 70.856009)"><path style="stroke:none" d="M 7.515625 0.359375 C 6.273438 0.359375 5.203125 0.132812 4.296875 -0.3125 C 3.390625 -0.769531 2.691406 -1.4375 2.203125 -2.3125 C 1.710938 -3.1875 1.46875 -4.242188 1.46875 -5.484375 C 1.46875 -6.617188 1.710938 -7.570312 2.203125 -8.34375 C 2.691406 -9.125 3.445312 -9.757812 4.46875 -10.25 C 5.488281 -10.75 6.828125 -11.132812 8.484375 -11.40625 C 9.640625 -11.59375 10.515625 -11.796875 11.109375 -12.015625 C 11.710938 -12.234375 12.117188 -12.484375 12.328125 -12.765625 C 12.535156 -13.046875 12.640625 -13.398438 12.640625 -13.828125 C 12.640625 -14.441406 12.421875 -14.910156 11.984375 -15.234375 C 11.554688 -15.566406 10.84375 -15.734375 9.84375 -15.734375 C 8.78125 -15.734375 7.765625 -15.492188 6.796875 -15.015625 C 5.828125 -14.535156 4.988281 -13.90625 4.28125 -13.125 L 3.921875 -13.125 L 1.90625 -16.1875 C 2.882812 -17.269531 4.078125 -18.113281 5.484375 -18.71875 C 6.890625 -19.320312 8.425781 -19.625 10.09375 -19.625 C 12.644531 -19.625 14.488281 -19.082031 15.625 -18 C 16.769531 -16.914062 17.34375 -15.378906 17.34375 -13.390625 L 17.34375 -5.03125 C 17.34375 -4.164062 17.722656 -3.734375 18.484375 -3.734375 C 18.765625 -3.734375 19.046875 -3.785156 19.328125 -3.890625 L 19.578125 -3.828125 L 19.921875 -0.453125 C 19.660156 -0.273438 19.289062 -0.128906 18.8125 -0.015625 C 18.332031 0.0859375 17.804688 0.140625 17.234375 0.140625 C 16.078125 0.140625 15.175781 -0.078125 14.53125 -0.515625 C 13.882812 -0.960938 13.425781 -1.660156 13.15625 -2.609375 L 12.78125 -2.640625 C 11.84375 -0.640625 10.085938 0.359375 7.515625 0.359375 Z M 9.046875 -3.25 C 10.160156 -3.25 11.050781 -3.625 11.71875 -4.375 C 12.394531 -5.125 12.734375 -6.171875 12.734375 -7.515625 L 12.734375 -9.46875 L 12.40625 -9.53125 C 12.113281 -9.300781 11.726562 -9.109375 11.25 -8.953125 C 10.78125 -8.796875 10.101562 -8.640625 9.21875 -8.484375 C 8.175781 -8.304688 7.421875 -8.003906 6.953125 -7.578125 C 6.492188 -7.160156 6.265625 -6.5625 6.265625 -5.78125 C 6.265625 -4.957031 6.507812 -4.328125 7 -3.890625 C 7.488281 -3.460938 8.171875 -3.25 9.046875 -3.25 Z M 9.046875 -3.25 "/></g></g><g style="fill:#ffffff;fill-opacity:1;"><g transform="translate(216.408902, 70.856009)"><path style="stroke:none" d="M 8 0.359375 C 6.257812 0.359375 4.929688 -0.101562 4.015625 -1.03125 C 3.109375 -1.96875 2.65625 -3.394531 2.65625 -5.3125 L 2.65625 -27 L 7.484375 -27 L 7.484375 -5.5 C 7.484375 -4.320312 7.972656 -3.734375 8.953125 -3.734375 C 9.234375 -3.734375 9.53125 -3.78125 9.84375 -3.875 L 10.09375 -3.8125 L 10.53125 -0.09375 C 10.257812 0.0507812 9.898438 0.160156 9.453125 0.234375 C 9.015625 0.316406 8.53125 0.359375 8 0.359375 Z M 8 0.359375 "/></g></g><g style="fill:#ffffff;fill-opacity:1;"><g transform="translate(227.480877, 70.856009)"><path style="stroke:none" d="M 11.1875 0.359375 C 9.300781 0.359375 7.644531 -0.0234375 6.21875 -0.796875 C 4.800781 -1.566406 3.695312 -2.695312 2.90625 -4.1875 C 2.125 -5.6875 1.734375 -7.5 1.734375 -9.625 C 1.734375 -11.738281 2.125 -13.546875 2.90625 -15.046875 C 3.695312 -16.554688 4.800781 -17.695312 6.21875 -18.46875 C 7.644531 -19.238281 9.300781 -19.625 11.1875 -19.625 C 13.070312 -19.625 14.726562 -19.238281 16.15625 -18.46875 C 17.582031 -17.695312 18.691406 -16.554688 19.484375 -15.046875 C 20.273438 -13.546875 20.671875 -11.738281 20.671875 -9.625 C 20.671875 -7.5 20.273438 -5.6875 19.484375 -4.1875 C 18.691406 -2.695312 17.582031 -1.566406 16.15625 -0.796875 C 14.726562 -0.0234375 13.070312 0.359375 11.1875 0.359375 Z M 11.1875 -3.734375 C 14.1875 -3.734375 15.6875 -5.695312 15.6875 -9.625 C 15.6875 -11.65625 15.300781 -13.144531 14.53125 -14.09375 C 13.757812 -15.050781 12.644531 -15.53125 11.1875 -15.53125 C 8.195312 -15.53125 6.703125 -13.5625 6.703125 -9.625 C 6.703125 -5.695312 8.195312 -3.734375 11.1875 -3.734375 Z M 11.1875 -3.734375 "/></g></g><g style="fill:#ffffff;fill-opacity:1;"><g transform="translate(249.869318, 70.856009)"><path style="stroke:none" d="M 2.78125 0 L 2.78125 -19.265625 L 7.421875 -19.265625 L 7.421875 -16.4375 L 7.78125 -16.34375 C 8.988281 -18.53125 10.9375 -19.625 13.625 -19.625 C 15.84375 -19.625 17.472656 -19.019531 18.515625 -17.8125 C 19.554688 -16.601562 20.078125 -14.835938 20.078125 -12.515625 L 20.078125 0 L 15.25 0 L 15.25 -11.921875 C 15.25 -13.203125 14.988281 -14.125 14.46875 -14.6875 C 13.957031 -15.257812 13.140625 -15.546875 12.015625 -15.546875 C 10.628906 -15.546875 9.546875 -15.097656 8.765625 -14.203125 C 7.992188 -13.304688 7.609375 -11.894531 7.609375 -9.96875 L 7.609375 0 Z M 2.78125 0 "/></g></g></g></svg>